<svg xmlns="http://www.w3.org/2000/svg" xmlns:xlink="http://www.w3.org/1999/xlink" width="59" height="59" viewBox="0 0 59 59">
  <defs>
    <linearGradient id="linear-gradient" x1="0.248" y1="0.056" x2="0.812" y2="0.906" gradientUnits="objectBoundingBox">
      <stop offset="0" stop-color="aqua"/>
      <stop offset="1" stop-color="#09ff6b"/>
    </linearGradient>
  </defs>
  <g id="Logo" transform="translate(-245 -64)">
    <circle id="Ellipse_1" data-name="Ellipse 1" cx="29.5" cy="29.5" r="29.5" transform="translate(245 64)" fill="url(#linear-gradient)"/>
    <path id="logo-2" data-name="logo" d="M23.3,2a2.079,2.079,0,0,0-.347,4.129v4.887h.694V6.133A2.081,2.081,0,0,0,23.3,2Zm16.169,9.363a2.08,2.08,0,0,0-1.9,2.805l-4.081,2.357.347.6,4.08-2.356a2.08,2.08,0,1,0,1.554-3.407Zm-32.483,0a2.08,2.08,0,1,0,1.7,3.4l4.085,2.36.347-.6L9.03,14.17a2.08,2.08,0,0,0-2.047-2.8ZM23.3,11.71l-9.611,5.548v11.1L23.3,33.9l9.61-5.548v-11.1Zm10.5,16.758-.347.6,4.117,2.377a2.086,2.086,0,1,0,.348-.6Zm-21.022.016L8.685,30.845a2.088,2.088,0,1,0,.344.6l4.091-2.362ZM22.951,34.6V39.48a2.093,2.093,0,1,0,.694,0V34.6Z" transform="translate(251.202 70.693)" fill="#202020" fill-rule="evenodd"/>
  </g>
</svg>
