<svg xmlns="http://www.w3.org/2000/svg" xmlns:xlink="http://www.w3.org/1999/xlink" width="118" height="118" viewBox="0 0 118 118">
  <defs>
    <linearGradient id="linear-gradient" x1="0.5" x2="0.5" y2="1" gradientUnits="objectBoundingBox">
      <stop offset="0" stop-color="#00ffcb"/>
      <stop offset="1" stop-color="#00e6ff"/>
    </linearGradient>
  </defs>
  <g id="non-vaccine" transform="translate(-1327.728 -2497.728)">
    <g id="syringe" transform="translate(1355.872 2526.08)">
      <path id="Path_13" data-name="Path 13" d="M60.124,10.109,51.6,1.586a5.424,5.424,0,0,0-7.67,7.67l.426.426L40.1,13.944l-2.131-2.131a5.423,5.423,0,0,0-8.729,6.172L10.693,36.529A5.432,5.432,0,0,0,9.634,42.7L7.284,45.051a4.223,4.223,0,0,0,0,5.966l.426.426L.529,58.624a1.808,1.808,0,0,0,2.557,2.557L10.267,54l.426.426a4.223,4.223,0,0,0,5.966,0l2.351-2.351a5.432,5.432,0,0,0,6.172-1.058L43.725,32.474A5.423,5.423,0,0,0,49.9,23.745l-2.131-2.131,4.261-4.261.426.426a5.424,5.424,0,0,0,7.671-7.671ZM14.1,51.87a.6.6,0,0,1-.852,0L9.84,48.461a.6.6,0,0,1,0-.852l2.131-2.131,4.261,4.261Zm8.523-3.409a1.81,1.81,0,0,1-2.557,0l-6.818-6.818a1.81,1.81,0,0,1,0-2.557L14.835,37.5l2.131,2.131a1.808,1.808,0,0,0,2.557-2.557l-2.131-2.131,2.557-2.557,2.131,2.131a1.808,1.808,0,1,0,2.557-2.557L22.505,29.83l2.557-2.557,9.375,9.375Zm14.369-14.37-9.375-9.375,3.954-3.954,9.375,9.375ZM47.34,28.858a1.81,1.81,0,0,1-2.557,0L32.852,16.927a1.808,1.808,0,1,1,2.557-2.557L47.34,26.3A1.81,1.81,0,0,1,47.34,28.858Zm-2.131-9.8L42.653,16.5l4.261-4.261L49.471,14.8Zm12.358-3.835a1.81,1.81,0,0,1-2.557,0L46.488,6.7a1.808,1.808,0,0,1,2.557-2.557l8.523,8.523A1.81,1.81,0,0,1,57.567,15.222Z" transform="translate(0.001 0)" fill="url(#linear-gradient)"/>
    </g>
    <g id="Group_34" data-name="Group 34" transform="translate(1328 2498)">
      <g id="Ellipse_8" data-name="Ellipse 8" transform="translate(-0.272 -0.272)" fill="none" stroke="#ff2355" stroke-width="7">
        <circle cx="59" cy="59" r="59" stroke="none"/>
        <circle cx="59" cy="59" r="55.5" fill="none"/>
      </g>
      <line id="Line_12" data-name="Line 12" x2="81.057" y2="82.088" transform="translate(17.169 18.886)" fill="none" stroke="#ff2355" stroke-width="7"/>
    </g>
  </g>
</svg>
