<svg id="statistics" xmlns="http://www.w3.org/2000/svg" width="139.011" height="139.011" viewBox="0 0 139.011 139.011">
  <path id="Path_45" data-name="Path 45" d="M230.265,148.17l-21.1,21.1a4.376,4.376,0,0,1-2.851,1.14,4.422,4.422,0,0,1-2.932-1.14,4.182,4.182,0,0,1,0-5.783l21.1-21.1a4.089,4.089,0,1,1,5.783,5.783Zm0,0" transform="translate(-147.32 -102.882)" fill="#465a61"/>
  <path id="Path_46" data-name="Path 46" d="M269.44,148.17,256,161.609V150.043l7.656-7.656a4.089,4.089,0,0,1,5.783,5.783Zm0,0" transform="translate(-186.495 -102.882)" fill="#3b4a51"/>
  <path id="Path_47" data-name="Path 47" d="M109.908,210.565a4.078,4.078,0,0,1-1.818-.43l-18.007-9a4.073,4.073,0,1,1,3.643-7.286l18.007,9a4.073,4.073,0,0,1-1.825,7.716Zm0,0" transform="translate(-63.983 -140.902)" fill="#465a61"/>
  <path id="Path_48" data-name="Path 48" d="M329.067,70.8a4.072,4.072,0,0,1-2.446-7.33l19.552-14.659a4.071,4.071,0,1,1,4.884,6.514L331.506,69.984A4.045,4.045,0,0,1,329.067,70.8Zm0,0" transform="translate(-236.753 -34.962)" fill="#3b4a51"/>
  <path id="Path_49" data-name="Path 49" d="M43.218,150a12.218,12.218,0,1,0,12.218,12.218A12.2,12.2,0,0,0,43.218,150Zm0,0" transform="translate(-22.583 -109.274)" fill="#697c86"/>
  <path id="Path_50" data-name="Path 50" d="M163.218,210a12.218,12.218,0,1,0,12.218,12.218A12.2,12.2,0,0,0,163.218,210Zm0,0" transform="translate(-110.003 -152.984)" fill="#c6e2e7"/>
  <path id="Path_51" data-name="Path 51" d="M283.218,90a12.218,12.218,0,1,0,12.218,12.218A12.2,12.2,0,0,0,283.218,90Zm0,0" transform="translate(-197.422 -65.565)" fill="#fdbf00"/>
  <path id="Path_52" data-name="Path 52" d="M403.218,0a12.218,12.218,0,1,0,12.218,12.218A12.2,12.2,0,0,0,403.218,0Zm0,0" transform="translate(-284.841)" fill="#e63950"/>
  <path id="Path_53" data-name="Path 53" d="M415.435,154.073V242.42H391V154.073A4.032,4.032,0,0,1,395.073,150h16.29A4.032,4.032,0,0,1,415.435,154.073Zm0,0" transform="translate(-284.841 -109.274)" fill="#e63950"/>
  <path id="Path_54" data-name="Path 54" d="M295.435,244.073v63.912H271V244.073A4.032,4.032,0,0,1,275.073,240h16.29A4.032,4.032,0,0,1,295.435,244.073Zm0,0" transform="translate(-197.422 -174.839)" fill="#fdbf00"/>
  <path id="Path_55" data-name="Path 55" d="M175.435,364.073V395.4H151V364.073A4.032,4.032,0,0,1,155.073,360h16.29A4.032,4.032,0,0,1,175.435,364.073Zm0,0" transform="translate(-110.003 -262.258)" fill="#c6e2e7"/>
  <path id="Path_56" data-name="Path 56" d="M55.435,304.073v47.621H31V304.073A4.032,4.032,0,0,1,35.073,300h16.29A4.032,4.032,0,0,1,55.435,304.073Zm0,0" transform="translate(-22.583 -218.548)" fill="#697c86"/>
  <path id="Path_57" data-name="Path 57" d="M436,24.435V0a12.218,12.218,0,0,1,0,24.435Zm0,0" transform="translate(-317.624)" fill="#cc2e43"/>
  <path id="Path_58" data-name="Path 58" d="M448.218,154.073V242.42H436V150h8.145A4.032,4.032,0,0,1,448.218,154.073Zm0,0" transform="translate(-317.624 -109.274)" fill="#cc2e43"/>
  <path id="Path_59" data-name="Path 59" d="M316,114.435V90a12.218,12.218,0,0,1,0,24.435Zm0,0" transform="translate(-230.204 -65.565)" fill="#ff9f00"/>
  <path id="Path_60" data-name="Path 60" d="M328.218,244.073v63.912H316V240h8.145A4.032,4.032,0,0,1,328.218,244.073Zm0,0" transform="translate(-230.204 -174.839)" fill="#ff9f00"/>
  <path id="Path_61" data-name="Path 61" d="M196,234.435V210a12.218,12.218,0,1,1,0,24.435Zm0,0" transform="translate(-142.785 -152.984)" fill="#a8d3d8"/>
  <path id="Path_62" data-name="Path 62" d="M208.218,364.073V395.4H196V360h8.145A4.032,4.032,0,0,1,208.218,364.073Zm0,0" transform="translate(-142.785 -262.258)" fill="#a8d3d8"/>
  <path id="Path_63" data-name="Path 63" d="M76,174.435V150a12.218,12.218,0,1,1,0,24.435Zm0,0" transform="translate(-55.366 -109.274)" fill="#596c76"/>
  <path id="Path_64" data-name="Path 64" d="M88.218,304.073v47.621H76V300h8.145A4.032,4.032,0,0,1,88.218,304.073Zm0,0" transform="translate(-55.366 -218.548)" fill="#596c76"/>
  <path id="Path_65" data-name="Path 65" d="M139.011,486.073a4.033,4.033,0,0,1-4.073,4.073H4.073a4.073,4.073,0,1,1,0-8.145H134.938A4.032,4.032,0,0,1,139.011,486.073Zm0,0" transform="translate(0 -351.135)" fill="#465a61"/>
  <path id="Path_66" data-name="Path 66" d="M325.505,486.073a4.033,4.033,0,0,1-4.073,4.073H256V482h65.433A4.032,4.032,0,0,1,325.505,486.073Zm0,0" transform="translate(-186.495 -351.135)" fill="#3b4a51"/>
</svg>
