<svg xmlns="http://www.w3.org/2000/svg" xmlns:xlink="http://www.w3.org/1999/xlink" width="108.518" height="108.518" viewBox="0 0 108.518 108.518">
  <defs>
    <linearGradient id="linear-gradient" x1="0.5" x2="0.5" y2="1" gradientUnits="objectBoundingBox">
      <stop offset="0" stop-color="#00ffcb"/>
      <stop offset="1" stop-color="#00e6ff"/>
    </linearGradient>
  </defs>
  <g id="syringe" transform="translate(0)">
    <path id="Path_13" data-name="Path 13" d="M105.728,17.776,90.741,2.789A9.538,9.538,0,0,0,77.253,16.277l.749.749L70.509,24.52l-3.747-3.747a9.537,9.537,0,0,0-15.35,10.853L18.8,64.236a9.553,9.553,0,0,0-1.861,10.853l-4.133,4.133a7.427,7.427,0,0,0,0,10.491l.749.749L.931,103.091a3.179,3.179,0,0,0,4.5,4.5L18.054,94.959l.749.749a7.427,7.427,0,0,0,10.491,0l4.133-4.133a9.553,9.553,0,0,0,10.854-1.861L76.89,57.105a9.537,9.537,0,0,0,10.853-15.35L84,38.009l7.493-7.493.749.749a9.538,9.538,0,0,0,13.489-13.489ZM24.8,91.213a1.061,1.061,0,0,1-1.5,0L17.3,85.218a1.061,1.061,0,0,1,0-1.5l3.747-3.747,7.493,7.493Zm14.987-5.995a3.183,3.183,0,0,1-4.5,0L23.3,73.228a3.183,3.183,0,0,1,0-4.5l2.788-2.788,3.747,3.747a3.179,3.179,0,0,0,4.5-4.5l-3.747-3.747,4.5-4.5L38.827,60.7a3.179,3.179,0,0,0,4.5-4.5l-3.747-3.747,4.5-4.5L60.558,64.445ZM65.054,59.949,48.568,43.463l6.953-6.953L72.007,53Zm18.194-9.2a3.183,3.183,0,0,1-4.5,0L57.77,29.766a3.179,3.179,0,0,1,4.5-4.5L83.248,46.251A3.183,3.183,0,0,1,83.248,50.747ZM79.5,33.512l-4.5-4.5L82.5,21.523l4.5,4.5Zm21.731-6.744a3.183,3.183,0,0,1-4.5,0L81.749,11.781a3.179,3.179,0,0,1,4.5-4.5l14.987,14.987A3.183,3.183,0,0,1,101.232,26.768Z" transform="translate(0 0)" fill="url(#linear-gradient)"/>
  </g>
</svg>
