<svg id="virus" xmlns="http://www.w3.org/2000/svg" xmlns:xlink="http://www.w3.org/1999/xlink" width="98.968" height="98.968" viewBox="0 0 98.968 98.968">
  <defs>
    <linearGradient id="linear-gradient" x1="0.5" x2="0.5" y2="1" gradientUnits="objectBoundingBox">
      <stop offset="0" stop-color="#00ffcb"/>
      <stop offset="1" stop-color="#00e6ff"/>
    </linearGradient>
  </defs>
  <g id="Group_19" data-name="Group 19" transform="translate(0)">
    <g id="Group_18" data-name="Group 18">
      <path id="Path_14" data-name="Path 14" d="M56.141,98.968H42.826a5.392,5.392,0,0,1-4.312-8.63l2.247-2.993V84.571a35.6,35.6,0,0,1-9.917-4.112L28.88,82.424l-.528,3.705A5.392,5.392,0,0,1,19.2,89.182L9.786,79.767a5.392,5.392,0,0,1,3.053-9.151l3.705-.528,1.964-1.964A35.6,35.6,0,0,1,14.4,58.207H11.623L8.63,60.454A5.392,5.392,0,0,1,0,56.141V42.826a5.392,5.392,0,0,1,8.63-4.312l2.993,2.247H14.4a35.606,35.606,0,0,1,4.112-9.917L16.544,28.88l-3.705-.528A5.392,5.392,0,0,1,9.786,19.2L19.2,9.786a5.392,5.392,0,0,1,9.151,3.053l.528,3.705,1.964,1.964A35.6,35.6,0,0,1,40.761,14.4V11.623L38.514,8.63A5.392,5.392,0,0,1,42.827,0H56.142a5.392,5.392,0,0,1,4.312,8.63l-2.247,2.993V14.4a35.606,35.606,0,0,1,9.917,4.112l1.964-1.964.528-3.705a5.392,5.392,0,0,1,9.151-3.053L89.182,19.2a5.392,5.392,0,0,1-3.053,9.151l-3.705.528-1.964,1.964a35.6,35.6,0,0,1,4.112,9.917h2.774l2.993-2.247a5.392,5.392,0,0,1,8.63,4.312V56.141a5.392,5.392,0,0,1-8.63,4.312l-2.993-2.247H84.571a35.606,35.606,0,0,1-4.112,9.917l1.964,1.964,3.705.528a5.392,5.392,0,0,1,3.053,9.151l-9.415,9.415a5.392,5.392,0,0,1-9.151-3.053l-.528-3.705-1.964-1.964a35.6,35.6,0,0,1-9.917,4.112v2.774l2.247,2.993a5.393,5.393,0,0,1-4.312,8.63Zm-12.5-5.8H55.328l-1.84-2.451a5.425,5.425,0,0,1-1.08-3.238V82.222a2.9,2.9,0,0,1,2.4-2.855,29.982,29.982,0,0,0,12.049-4.995,2.9,2.9,0,0,1,3.712.326l3.722,3.721a5.426,5.426,0,0,1,1.525,3.053l.432,3.034,8.264-8.264-3.034-.432a5.425,5.425,0,0,1-3.053-1.526L74.7,70.563a2.9,2.9,0,0,1-.326-3.712A29.977,29.977,0,0,0,79.367,54.8a2.9,2.9,0,0,1,2.855-2.4h5.259a5.426,5.426,0,0,1,3.238,1.08l2.451,1.84V43.64l-2.451,1.84a5.425,5.425,0,0,1-3.238,1.08H82.222a2.9,2.9,0,0,1-2.855-2.4,29.982,29.982,0,0,0-4.995-12.049A2.9,2.9,0,0,1,74.7,28.4l3.721-3.721a5.425,5.425,0,0,1,3.053-1.525l3.034-.432-8.264-8.264L75.81,17.5a5.425,5.425,0,0,1-1.525,3.053L70.563,24.27a2.9,2.9,0,0,1-3.712.326A29.977,29.977,0,0,0,54.8,19.6a2.9,2.9,0,0,1-2.395-2.855V11.487a5.426,5.426,0,0,1,1.08-3.238l1.84-2.45H43.64L45.48,8.25a5.425,5.425,0,0,1,1.08,3.238v5.259A2.9,2.9,0,0,1,44.165,19.6,29.98,29.98,0,0,0,32.117,24.6,2.9,2.9,0,0,1,28.4,24.27l-3.722-3.721A5.426,5.426,0,0,1,23.158,17.5l-.432-3.034-8.264,8.264,3.034.432a5.425,5.425,0,0,1,3.053,1.525L24.27,28.4a2.9,2.9,0,0,1,.326,3.712A29.98,29.98,0,0,0,19.6,44.165a2.9,2.9,0,0,1-2.855,2.4H11.487a5.426,5.426,0,0,1-3.238-1.08L5.8,43.64V55.328l2.451-1.84a5.425,5.425,0,0,1,3.238-1.08h5.259A2.9,2.9,0,0,1,19.6,54.8,29.98,29.98,0,0,0,24.6,66.851a2.9,2.9,0,0,1-.326,3.712l-3.721,3.722A5.426,5.426,0,0,1,17.5,75.81l-3.034.432,8.264,8.264.432-3.034a5.425,5.425,0,0,1,1.525-3.053L28.4,74.7a2.9,2.9,0,0,1,3.712-.326,29.982,29.982,0,0,0,12.049,4.995,2.9,2.9,0,0,1,2.4,2.855v5.259a5.426,5.426,0,0,1-1.08,3.238Z" transform="translate(0)" fill="url(#linear-gradient)"/>
    </g>
  </g>
  <g id="Group_21" data-name="Group 21" transform="translate(28.137 28.137)">
    <g id="Group_20" data-name="Group 20">
      <path id="Path_15" data-name="Path 15" d="M157.2,168.83A11.634,11.634,0,1,1,168.83,157.2,11.647,11.647,0,0,1,157.2,168.83Zm0-17.469a5.835,5.835,0,1,0,5.835,5.835A5.842,5.842,0,0,0,157.2,151.361Z" transform="translate(-145.562 -145.562)" fill="url(#linear-gradient)"/>
    </g>
  </g>
  <g id="Group_23" data-name="Group 23" transform="translate(52.408 52.408)">
    <g id="Group_22" data-name="Group 22">
      <path id="Path_16" data-name="Path 16" d="M279.848,288.57a8.723,8.723,0,1,1,8.723-8.723A8.732,8.732,0,0,1,279.848,288.57Zm0-11.646a2.924,2.924,0,1,0,2.924,2.924A2.927,2.927,0,0,0,279.848,276.924Z" transform="translate(-271.125 -271.125)" fill="url(#linear-gradient)"/>
    </g>
  </g>
  <g id="Group_26" data-name="Group 26" transform="translate(35.564 62.435)">
    <g id="Group_25" data-name="Group 25">
      <g id="Group_24" data-name="Group 24">
        <path id="Path_17" data-name="Path 17" d="M186.889,328.8a2.9,2.9,0,1,0-2.9-2.9A2.932,2.932,0,0,0,186.889,328.8Z" transform="translate(-183.987 -323)" fill="url(#linear-gradient)"/>
      </g>
    </g>
  </g>
  <g id="Group_29" data-name="Group 29" transform="translate(64.945 42.912)">
    <g id="Group_28" data-name="Group 28">
      <g id="Group_27" data-name="Group 27">
        <path id="Path_18" data-name="Path 18" d="M338.889,227.8a2.9,2.9,0,1,0-2.9-2.9A2.932,2.932,0,0,0,338.889,227.8Z" transform="translate(-335.987 -222)" fill="url(#linear-gradient)"/>
      </g>
    </g>
  </g>
  <g id="Group_32" data-name="Group 32" transform="translate(55.667 29.188)">
    <g id="Group_31" data-name="Group 31">
      <g id="Group_30" data-name="Group 30">
        <path id="Path_19" data-name="Path 19" d="M290.889,156.8a2.9,2.9,0,1,0-2.9-2.9A2.932,2.932,0,0,0,290.889,156.8Z" transform="translate(-287.987 -151)" fill="url(#linear-gradient)"/>
      </g>
    </g>
  </g>
</svg>
